<?xml version="1.0" encoding="UTF-8"?>
<COLLADA xmlns="http://www.collada.org/2005/11/COLLADASchema" version="1.4.1">
<!--
# File generated by ImageToStl.com - Free Image and 3D model conversion tools
-->
  <asset>
    <contributor>
      <author>ImageToStl.com</author>
      <authoring_tool>ImageToStl.com</authoring_tool>
    </contributor>
    <created>2025-06-19T11:20:16</created>
    <modified>2025-06-19T11:20:16</modified>
    <up_axis>Z_UP</up_axis>
  </asset>
  <library_effects>
    <effect id="effect_0">
        <profile_COMMON>
          <technique sid="common">
            <phong>
              <diffuse>
                <color>0.8353 0.8392 0.8235 1</color>
              </diffuse>
            </phong>
          </technique>
        </profile_COMMON>
    </effect>
    <effect id="effect_1">
        <profile_COMMON>
          <technique sid="common">
            <phong>
              <diffuse>
                <color>0.8353 0.8392 0.8235 1</color>
              </diffuse>
            </phong>
          </technique>
        </profile_COMMON>
    </effect>
    <effect id="effect_2">
        <profile_COMMON>
          <technique sid="common">
            <phong>
              <diffuse>
                <color>0.9098 0.9098 0.9098 1</color>
              </diffuse>
            </phong>
          </technique>
        </profile_COMMON>
    </effect>
  </library_effects>
  <library_materials>
    <material id="mat_0">
      <instance_effect url="#effect_0"/>
    </material>
    <material id="mat_1">
      <instance_effect url="#effect_1"/>
    </material>
    <material id="mat_2">
      <instance_effect url="#effect_2"/>
    </material>
  </library_materials>
  <library_geometries>
    <geometry id="geometry_adad6e38_c61f_41f4_a31a_8b8d9936a70a">
      <mesh>
        <source id="pos_0">
          <float_array id="pos_0-array" count="630">454.15133667 -878.39129639 1016.89910889 454.15133667 -884.39129639 1016.89910889 453.79336548 -878.39129639 1028.85998535 453.79336548 -884.39129639 1028.85998535 454.15133667 -878.39129639 1040.82080078 454.15133667 -884.39129639 1040.82080078 455.22399902 -878.39129639 1052.73876953 455.22399902 -884.39129639 1052.73876953 457.00744629 -878.39129639 1064.57128906 457.00744629 -884.39129639 1064.57128906 459.49536133 -878.39129639 1076.27600098 459.49536133 -884.39129639 1076.27600098 462.67880249 -878.39129639 1087.81103516 462.67880249 -884.39129639 1087.81103516 466.54641724 -878.39129639 1099.1348877 466.54641724 -884.39129639 1099.1348877 471.08428955 -878.39129639 1110.20727539 471.08428955 -884.39129639 1110.20727539 476.2762146 -878.39129639 1120.98840332 476.2762146 -884.39129639 1120.98840332 482.10360718 -878.39129639 1131.43981934 482.10360718 -884.39129639 1131.43981934 488.54562378 -878.39129639 1141.52392578 488.54562378 -884.39129639 1141.52392578 495.5791626 -878.39129639 1151.20483398 495.5791626 -884.39129639 1151.20483398 503.17907715 -878.39129639 1160.44775391 503.17907715 -884.39129639 1160.44775391 511.31814575 -878.39129639 1169.21960449 511.31814575 -884.39129639 1169.21960449 519.96728516 -878.39129639 1177.4888916 519.96728516 -884.39129639 1177.4888916 529.09539795 -878.39129639 1185.22631836 529.09539795 -884.39129639 1185.22631836 538.66998291 -878.39129639 1192.40380859 538.66998291 -884.39129639 1192.40380859 548.65661621 -878.39129639 1198.99597168 548.65661621 -884.39129639 1198.99597168 559.01965332 -878.39129639 1204.97912598 559.01965332 -884.39129639 1204.97912598 569.72192383 -878.39129639 1210.33166504 569.72192383 -884.39129639 1210.33166504 580.72515869 -878.39129639 1215.03466797 580.72515869 -884.39129639 1215.03466797 591.98999023 -878.39129639 1219.07128906 591.98999023 -884.39129639 1219.07128906 603.47601318 -878.39129639 1222.42687988 603.47601318 -884.39129639 1222.42687988 615.14221191 -878.39129639 1225.08959961 615.14221191 -884.39129639 1225.08959961 626.94671631 -878.39129639 1227.04992676 626.94671631 -884.39129639 1227.04992676 638.84735107 -878.39129639 1228.30078125 638.84735107 -884.39129639 1228.30078125 650.80151367 -878.39129639 1228.83764648 650.80151367 -884.39129639 1228.83764648 662.76635742 -878.39129639 1228.65856934 662.76635742 -884.39129639 1228.65856934 674.69909668 -878.39129639 1227.7644043 674.69909668 -884.39129639 1227.7644043 686.5569458 -878.39129639 1226.15808105 686.5569458 -884.39129639 1226.15808105 698.29754639 -878.39129639 1223.84558105 698.29754639 -884.39129639 1223.84558105 709.87884521 -878.39129639 1220.83496094 709.87884521 -884.39129639 1220.83496094 721.25939941 -878.39129639 1217.13720703 721.25939941 -884.39129639 1217.13720703 732.39837646 -878.39129639 1212.76550293 732.39837646 -884.39129639 1212.76550293 743.25598145 -878.39129639 1207.73547363 743.25598145 -884.39129639 1207.73547363 753.793396 -878.39129639 1202.06506348 753.793396 -884.39129639 1202.06506348 763.97277832 -878.39129639 1195.7746582 763.97277832 -884.39129639 1195.7746582 773.75775146 -878.39129639 1188.88671875 773.75775146 -884.39129639 1188.88671875 783.11328125 -878.39129639 1181.42590332 783.11328125 -884.39129639 1181.42590332 792.00592041 -878.39129639 1173.41894531 792.00592041 -884.39129639 1173.41894531 800.40374756 -878.39129639 1164.89453125 800.40374756 -884.39129639 1164.89453125 808.27679443 -878.39129639 1155.88317871 808.27679443 -884.39129639 1155.88317871 815.59680176 -878.39129639 1146.41699219 815.59680176 -884.39129639 1146.41699219 822.33758545 -878.39129639 1136.5300293 822.33758545 -884.39129639 1136.5300293 828.47503662 -878.39129639 1126.25769043 828.47503662 -884.39129639 1126.25769043 833.98712158 -878.39129639 1115.63671875 833.98712158 -884.39129639 1115.63671875 838.85424805 -878.39129639 1104.70507812 838.85424805 -884.39129639 1104.70507812 843.05883789 -878.39129639 1093.50195312 843.05883789 -884.39129639 1093.50195312 846.5859375 -878.39129639 1082.06738281 846.5859375 -884.39129639 1082.06738281 849.4229126 -878.39129639 1070.44226074 849.4229126 -884.39129639 1070.44226074 851.55957031 -878.39129639 1058.66845703 851.55957031 -884.39129639 1058.66845703 852.98822021 -878.39129639 1046.7878418 852.98822021 -884.39129639 1046.7878418 853.70385742 -878.39129639 1034.84301758 853.70385742 -884.39129639 1034.84301758 853.70385742 -878.39129639 1022.87689209 853.70385742 -884.39129639 1022.87689209 852.98822021 -878.39129639 1010.93212891 852.98822021 -884.39129639 1010.93212891 851.55957031 -878.39129639 999.05151367 851.55957031 -884.39129639 999.05151367 849.4229126 -878.39129639 987.27764893 849.4229126 -884.39129639 987.27764893 846.5859375 -878.39129639 975.65258789 846.5859375 -884.39129639 975.65258789 843.05883789 -878.39129639 964.21801758 843.05883789 -884.39129639 964.21801758 838.85424805 -878.39129639 953.01489258 838.85424805 -884.39129639 953.01489258 833.98712158 -878.39129639 942.08319092 833.98712158 -884.39129639 942.08319092 828.47503662 -878.39129639 931.46221924 828.47503662 -884.39129639 931.46221924 822.33758545 -878.39129639 921.18981934 822.33758545 -884.39129639 921.18981934 815.59680176 -878.39129639 911.30291748 815.59680176 -884.39129639 911.30291748 808.27679443 -878.39129639 901.83679199 808.27679443 -884.39129639 901.83679199 800.40374756 -878.39129639 892.82543945 800.40374756 -884.39129639 892.82543945 792.00592041 -878.39129639 884.30096436 792.00592041 -884.39129639 884.30096436 783.11328125 -878.39129639 876.29406738 783.11328125 -884.39129639 876.29406738 773.75775146 -878.39129639 868.83325195 773.75775146 -884.39129639 868.83325195 763.97277832 -878.39129639 861.9453125 763.97277832 -884.39129639 861.9453125 753.793396 -878.39129639 855.65490723 753.793396 -884.39129639 855.65490723 743.25598145 -878.39129639 849.98449707 743.25598145 -884.39129639 849.98449707 732.39837646 -878.39129639 844.95440674 732.39837646 -884.39129639 844.95440674 721.25939941 -878.39129639 840.58270264 721.25939941 -884.39129639 840.58270264 709.87884521 -878.39129639 836.88494873 709.87884521 -884.39129639 836.88494873 698.29754639 -878.39129639 833.87438965 698.29754639 -884.39129639 833.87438965 686.5569458 -878.39129639 831.56182861 686.5569458 -884.39129639 831.56182861 674.69909668 -878.39129639 829.95556641 674.69909668 -884.39129639 829.95556641 662.76635742 -878.39129639 829.06134033 662.76635742 -884.39129639 829.06134033 650.80151367 -878.39129639 828.88232422 650.80151367 -884.39129639 828.88232422 638.84735107 -878.39129639 829.41918945 638.84735107 -884.39129639 829.41918945 626.94671631 -878.39129639 830.67004395 626.94671631 -884.39129639 830.67004395 615.14221191 -878.39129639 832.63031006 615.14221191 -884.39129639 832.63031006 603.47601318 -878.39129639 835.29302979 603.47601318 -884.39129639 835.29302979 591.98999023 -878.39129639 838.64868164 591.98999023 -884.39129639 838.64868164 580.72515869 -878.39129639 842.6852417 580.72515869 -884.39129639 842.6852417 569.72192383 -878.39129639 847.38824463 569.72192383 -884.39129639 847.38824463 559.01965332 -878.39129639 852.74084473 559.01965332 -884.39129639 852.74084473 548.65661621 -878.39129639 858.72393799 548.65661621 -884.39129639 858.72393799 538.66998291 -878.39129639 865.31610107 538.66998291 -884.39129639 865.31610107 529.09539795 -878.39129639 872.49365234 529.09539795 -884.39129639 872.49365234 519.96728516 -878.39129639 880.23101807 519.96728516 -884.39129639 880.23101807 511.31814575 -878.39129639 888.50036621 511.31814575 -884.39129639 888.50036621 503.17907715 -878.39129639 897.2722168 503.17907715 -884.39129639 897.2722168 495.5791626 -878.39129639 906.51513672 495.5791626 -884.39129639 906.51513672 488.54562378 -878.39129639 916.19598389 488.54562378 -884.39129639 916.19598389 482.10360718 -878.39129639 926.28009033 482.10360718 -884.39129639 926.28009033 476.2762146 -878.39129639 936.73150635 476.2762146 -884.39129639 936.73150635 471.08428955 -878.39129639 947.51263428 471.08428955 -884.39129639 947.51263428 466.54641724 -878.39129639 958.58502197 466.54641724 -884.39129639 958.58502197 462.67880249 -878.39129639 969.90893555 462.67880249 -884.39129639 969.90893555 459.49536133 -878.39129639 981.44390869 459.49536133 -884.39129639 981.44390869 457.00744629 -878.39129639 993.14855957 457.00744629 -884.39129639 993.14855957 455.22399902 -878.39129639 1004.98114014 455.22399902 -884.39129639 1004.98114014</float_array>
          <technique_common>
            <accessor source="#pos_0-array" count="630" stride="3">
              <param name="X" type="float"/>
              <param name="Y" type="float"/>
              <param name="Z" type="float"/>
            </accessor>
          </technique_common>
        </source>
        <source id="norm_0">
          <float_array id="norm_0-array" count="321">-0.99955 -0 -0.02992 -0.99955 0 0.02992 -0.99597 0 0.08964 -0.98883 0 0.14904 -0.97815 0 0.20791 -0.96396 0 0.26604 -0.94633 0 0.32321 -0.9253 0 0.37923 -0.90097 0 0.43388 -0.87341 0 0.48699 -0.84272 0 0.53835 -0.80902 0 0.58779 -0.77242 0 0.63512 -0.73305 0 0.68017 -0.69106 0 0.72279 -0.6466 0 0.76283 -0.59982 0 0.80013 -0.5509 0 0.83457 -0.5 0 0.86603 -0.44731 0 0.89438 -0.39303 0 0.91953 -0.33733 0 0.94139 -0.28043 0 0.95988 -0.22252 0 0.97493 -0.16382 0 0.98649 -0.10453 0 0.99452 -0.04486 0 0.99899 0.01496 0 0.99989 0.07473 0 0.9972 0.13423 0 0.99095 0.19326 0 0.98115 0.25159 0 0.96783 0.30902 0 0.95106 0.36534 0 0.93087 0.42036 0 0.90736 0.47387 0 0.8806 0.52568 0 0.85068 0.57562 0 0.81772 0.62349 0 0.78183 0.66913 0 0.74314 0.71238 0 0.7018 0.75307 0 0.65794 0.79107 0 0.61172 0.82624 0 0.56332 0.85845 0 0.5129 0.88759 0 0.46064 0.91355 0 0.40674 0.93623 0 0.35137 0.95557 0 0.29476 0.97149 0 0.23708 0.98393 0 0.17856 0.99285 0 0.11939 0.99821 0 0.0598 1 0 0 0.99821 0 -0.0598 0.99285 0 -0.11939 0.98393 0 -0.17856 0.97149 0 -0.23708 0.95557 0 -0.29476 0.93623 0 -0.35137 0.91355 0 -0.40674 0.88759 0 -0.46064 0.85845 0 -0.5129 0.82624 0 -0.56332 0.79107 0 -0.61172 0.75307 0 -0.65794 0.71238 0 -0.7018 0.66913 0 -0.74314 0.62349 0 -0.78183 0.57562 0 -0.81772 0.52568 0 -0.85068 0.47387 0 -0.8806 0.42036 0 -0.90736 0.36534 0 -0.93087 0.30902 0 -0.95106 0.25159 0 -0.96783 0.19326 0 -0.98115 0.13423 0 -0.99095 0.07473 0 -0.9972 0.01496 0 -0.99989 -0.04486 -0 -0.99899 -0.10453 -0 -0.99452 -0.16382 -0 -0.98649 -0.22252 -0 -0.97493 -0.28043 -0 -0.95988 -0.33733 -0 -0.94139 -0.39303 -0 -0.91953 -0.44731 -0 -0.89438 -0.5 -0 -0.86603 -0.5509 -0 -0.83457 -0.59982 -0 -0.80013 -0.6466 -0 -0.76283 -0.69106 -0 -0.72279 -0.73305 -0 -0.68017 -0.77242 -0 -0.63512 -0.80902 -0 -0.58779 -0.84272 -0 -0.53835 -0.87341 -0 -0.48699 -0.90097 -0 -0.43388 -0.9253 -0 -0.37923 -0.94633 -0 -0.32321 -0.96396 -0 -0.26604 -0.97815 -0 -0.20791 -0.98883 -0 -0.14904 -0.99597 -0 -0.08964 0 -1 0 0 1 0</float_array>
          <technique_common>
            <accessor source="#norm_0-array" count="321" stride="3">
              <param name="X" type="float"/>
              <param name="Y" type="float"/>
              <param name="Z" type="float"/>
            </accessor>
          </technique_common>
        </source>
        <source id="uvs_0">
          <float_array id="uvs_0-array" count="0"></float_array>
          <technique_common>
            <accessor source="#uvs_0-array" count="0" stride="2">
              <param name="S" type="float"/>
              <param name="T" type="float"/>
            </accessor>
          </technique_common>
        </source>
        <vertices id="vert_0">
          <input semantic="POSITION" source="#pos_0"/>
        </vertices>
        <triangles count="313" material="mat_1">
          <input semantic="VERTEX" source="#vert_0" offset="0"/>
          <input semantic="NORMAL" source="#norm_0" offset="1"/>
          <p>0 0 1 0 2 0 2 0 1 0 3 0 2 1 3 1 4 1 4 1 3 1 5 1 4 2 5 2 6 2 6 2 5 2 7 2 6 3 7 3 8 3 8 3 7 3 9 3 8 4 9 4 10 4 10 4 9 4 11 4 10 5 11 5 12 5 12 5 11 5 13 5 12 6 13 6 14 6 14 6 13 6 15 6 14 7 15 7 16 7 16 7 15 7 17 7 16 8 17 8 18 8 18 8 17 8 19 8 18 9 19 9 20 9 20 9 19 9 21 9 20 10 21 10 22 10 22 10 21 10 23 10 22 11 23 11 24 11 24 11 23 11 25 11 24 12 25 12 26 12 26 12 25 12 27 12 26 13 27 13 28 13 28 13 27 13 29 13 28 14 29 14 30 14 30 14 29 14 31 14 30 15 31 15 32 15 32 15 31 15 33 15 32 16 33 16 34 16 34 16 33 16 35 16 34 17 35 17 36 17 36 17 35 17 37 17 36 18 37 18 38 18 38 18 37 18 39 18 38 19 39 19 40 19 40 19 39 19 41 19 40 20 41 20 42 20 42 20 41 20 43 20 42 21 43 21 44 21 44 21 43 21 45 21 44 22 45 22 46 22 46 22 45 22 47 22 46 23 47 23 48 23 48 23 47 23 49 23 48 24 49 24 50 24 50 24 49 24 51 24 50 25 51 25 52 25 52 25 51 25 53 25 52 26 53 26 54 26 54 26 53 26 55 26 54 27 55 27 56 27 56 27 55 27 57 27 56 28 57 28 58 28 58 28 57 28 59 28 58 29 59 29 60 29 60 29 59 29 61 29 60 30 61 30 62 30 62 30 61 30 63 30 62 31 63 31 64 31 64 31 63 31 65 31 64 32 65 32 66 32 66 32 65 32 67 32 66 33 67 33 68 33 68 33 67 33 69 33 68 34 69 34 70 34 70 34 69 34 71 34 70 35 71 35 72 35 72 35 71 35 73 35 72 36 73 36 74 36 74 36 73 36 75 36 74 37 75 37 76 37 76 37 75 37 77 37 76 38 77 38 78 38 78 38 77 38 79 38 78 39 79 39 80 39 80 39 79 39 81 39 80 40 81 40 82 40 82 40 81 40 83 40 82 41 83 41 84 41 84 41 83 41 85 41 84 42 85 42 86 42 86 42 85 42 87 42 86 43 87 43 88 43 88 43 87 43 89 43 88 44 89 44 90 44 90 44 89 44 91 44 90 45 91 45 92 45 92 45 91 45 93 45 92 46 93 46 94 46 94 46 93 46 95 46 94 47 95 47 96 47 96 47 95 47 97 47 96 48 97 48 98 48 98 48 97 48 99 48 98 49 99 49 100 49 100 49 99 49 101 49 100 50 101 50 102 50 102 50 101 50 103 50 102 51 103 51 104 51 104 51 103 51 105 51 104 52 105 52 106 52 106 52 105 52 107 52 106 53 107 53 108 53 108 53 107 53 109 53 108 54 109 54 110 54 110 54 109 54 111 54 110 55 111 55 112 55 112 55 111 55 113 55 112 56 113 56 114 56 114 56 113 56 115 56 114 57 115 57 116 57 116 57 115 57 117 57 116 58 117 58 118 58 118 58 117 58 119 58 118 59 119 59 120 59 120 59 119 59 121 59 120 60 121 60 122 60 122 60 121 60 123 60 122 61 123 61 124 61 124 61 123 61 125 61 124 62 125 62 126 62 126 62 125 62 127 62 126 63 127 63 128 63 128 63 127 63 129 63 128 64 129 64 130 64 130 64 129 64 131 64 130 65 131 65 132 65 132 65 131 65 133 65 132 66 133 66 134 66 134 66 133 66 135 66 134 67 135 67 136 67 136 67 135 67 137 67 136 68 137 68 138 68 138 68 137 68 139 68 138 69 139 69 140 69 140 69 139 69 141 69 140 70 141 70 142 70 142 70 141 70 143 70 142 71 143 71 144 71 144 71 143 71 145 71 144 72 145 72 146 72 146 72 145 72 147 72 146 73 147 73 148 73 148 73 147 73 149 73 148 74 149 74 150 74 150 74 149 74 151 74 150 75 151 75 152 75 152 75 151 75 153 75 152 76 153 76 154 76 154 76 153 76 155 76 154 77 155 77 156 77 156 77 155 77 157 77 156 78 157 78 158 78 158 78 157 78 159 78 158 79 159 79 160 79 160 79 159 79 161 79 160 80 161 80 162 80 162 80 161 80 163 80 162 81 163 81 164 81 164 81 163 81 165 81 164 82 165 82 166 82 166 82 165 82 167 82 166 83 167 83 168 83 168 83 167 83 169 83 168 84 169 84 170 84 170 84 169 84 171 84 170 85 171 85 172 85 172 85 171 85 173 85 172 86 173 86 174 86 174 86 173 86 175 86 174 87 175 87 176 87 176 87 175 87 177 87 176 88 177 88 178 88 178 88 177 88 179 88 178 89 179 89 180 89 180 89 179 89 181 89 180 90 181 90 182 90 182 90 181 90 183 90 182 91 183 91 184 91 184 91 183 91 185 91 184 92 185 92 186 92 186 92 185 92 187 92 186 93 187 93 188 93 188 93 187 93 189 93 188 94 189 94 190 94 190 94 189 94 191 94 190 95 191 95 192 95 192 95 191 95 193 95 192 96 193 96 194 96 194 96 193 96 195 96 194 97 195 97 196 97 196 97 195 97 197 97 196 98 197 98 198 98 198 98 197 98 199 98 198 99 199 99 200 99 200 99 199 99 201 99 200 100 201 100 202 100 202 100 201 100 203 100 202 101 203 101 204 101 204 101 203 101 205 101 204 102 205 102 206 102 206 102 205 102 207 102 206 103 207 103 208 103 208 103 207 103 209 103 208 104 209 104 0 104 0 104 209 104 1 104 4 106 106 106 2 106 2 106 106 106 108 106 2 106 108 106 0 106 0 106 108 106 110 106 0 106 110 106 208 106 208 106 110 106 112 106 208 106 112 106 206 106 206 106 112 106 114 106 206 106 114 106 204 106 204 106 114 106 116 106 204 106 116 106 202 106 202 106 116 106 200 106 200 106 116 106 198 106 198 106 116 106 196 106 196 106 116 106 194 106 194 106 116 106 118 106 194 106 118 106 192 106 192 106 118 106 190 106 190 106 118 106 188 106 188 106 118 106 186 106 186 106 118 106 184 106 184 106 118 106 182 106 182 106 118 106 180 106 180 106 118 106 178 106 178 106 118 106 176 106 176 106 118 106 174 106 174 106 118 106 172 106 172 106 118 106 170 106 170 106 118 106 168 106 168 106 118 106 166 106 166 106 118 106 164 106 164 106 118 106 162 106 162 106 118 106 160 106 160 106 118 106 158 106 158 106 118 106 156 106 156 106 118 106 154 106 154 106 118 106 152 106 152 106 118 106 150 106 150 106 118 106 148 106 148 106 118 106 146 106 146 106 118 106 144 106 144 106 118 106 142 106 142 106 118 106 140 106 140 106 118 106 138 106 138 106 118 106 136 106 136 106 118 106 134 106 134 106 118 106 132 106 132 106 118 106 130 106 130 106 118 106 128 106 128 106 118 106 126 106 126 106 118 106 124 106 124 106 118 106 122 106 122 106 118 106 120 106 106 106 4 106 104 106 104 106 4 106 6 106 104 106 6 106 102 106 102 106 6 106 8 106 102 106 8 106 100 106 100 106 8 106 10 106 100 106 10 106 98 106 98 106 10 106 12 106 98 106 12 106 96 106 96 106 12 106 14 106 96 106 14 106 94 106 94 106 14 106 16 106 94 106 16 106 92 106 92 106 16 106 18 106 92 106 18 106 90 106 90 106 18 106 20 106 90 106 20 106 88 106 88 106 20 106 22 106 88 106 22 106 86 106 86 106 22 106 24 106 86 106 24 106 84 106 84 106 24 106 26 106 84 106 26 106 82 106 82 106 26 106 28 106 82 106 28 106 80 106 80 106 28 106 30 106 80 106 30 106 78 106 78 106 30 106 32 106 78 106 32 106 76 106 76 106 32 106 34 106 76 106 34 106 74 106 74 106 34 106 36 106 74 106 36 106 72 106 72 106 36 106 38 106 72 106 38 106 70 106 70 106 38 106 40 106 70 106 40 106 68 106 68 106 40 106 42 106 68 106 42 106 66 106 66 106 42 106 44 106 66 106 44 106 64 106 64 106 44 106 46 106 64 106 46 106 62 106 62 106 46 106 48 106 62 106 48 106 60 106 60 106 48 106 50 106 60 106 50 106 58 106 58 106 50 106 52 106 58 106 52 106 56 106 56 106 52 106 54 106</p>
        </triangles>
        <triangles count="103" material="mat_2">
          <input semantic="VERTEX" source="#vert_0" offset="0"/>
          <input semantic="NORMAL" source="#norm_0" offset="1"/>
          <p>1 105 109 105 3 105 3 105 109 105 107 105 3 105 107 105 5 105 5 105 107 105 105 105 5 105 105 105 7 105 7 105 105 105 103 105 7 105 103 105 9 105 9 105 103 105 101 105 9 105 101 105 11 105 11 105 101 105 99 105 11 105 99 105 13 105 13 105 99 105 15 105 15 105 99 105 17 105 17 105 99 105 19 105 19 105 99 105 21 105 21 105 99 105 97 105 21 105 97 105 23 105 23 105 97 105 25 105 25 105 97 105 27 105 27 105 97 105 29 105 29 105 97 105 31 105 31 105 97 105 33 105 33 105 97 105 35 105 35 105 97 105 37 105 37 105 97 105 39 105 39 105 97 105 41 105 41 105 97 105 43 105 43 105 97 105 45 105 45 105 97 105 47 105 47 105 97 105 49 105 49 105 97 105 51 105 51 105 97 105 53 105 53 105 97 105 55 105 55 105 97 105 57 105 57 105 97 105 59 105 59 105 97 105 61 105 61 105 97 105 63 105 63 105 97 105 65 105 65 105 97 105 67 105 67 105 97 105 69 105 69 105 97 105 71 105 71 105 97 105 73 105 73 105 97 105 75 105 75 105 97 105 77 105 77 105 97 105 79 105 79 105 97 105 81 105 81 105 97 105 83 105 83 105 97 105 85 105 85 105 97 105 87 105 87 105 97 105 89 105 89 105 97 105 91 105 91 105 97 105 93 105 93 105 97 105 95 105 109 105 1 105 111 105 111 105 1 105 209 105 111 105 209 105 113 105 113 105 209 105 207 105 113 105 207 105 115 105 115 105 207 105 205 105 115 105 205 105 117 105 117 105 205 105 203 105 117 105 203 105 119 105 119 105 203 105 201 105 119 105 201 105 121 105 121 105 201 105 199 105 121 105 199 105 123 105 123 105 199 105 197 105 123 105 197 105 125 105 125 105 197 105 195 105 125 105 195 105 127 105 127 105 195 105 193 105 127 105 193 105 129 105 129 105 193 105 191 105 129 105 191 105 131 105 131 105 191 105 189 105 131 105 189 105 133 105 133 105 189 105 187 105 133 105 187 105 135 105 135 105 187 105 185 105 135 105 185 105 137 105 137 105 185 105 183 105 137 105 183 105 139 105 139 105 183 105 181 105 139 105 181 105 141 105 141 105 181 105 179 105 141 105 179 105 143 105 143 105 179 105 177 105 143 105 177 105 145 105 145 105 177 105 175 105 145 105 175 105 147 105 147 105 175 105 173 105 147 105 173 105 149 105 149 105 173 105 171 105 149 105 171 105 151 105 151 105 171 105 169 105 151 105 169 105 153 105 153 105 169 105 167 105 153 105 167 105 155 105 155 105 167 105 165 105 155 105 165 105 157 105 157 105 165 105 163 105 157 105 163 105 159 105 159 105 163 105 161 105</p>
        </triangles>
      </mesh>
    </geometry>
  </library_geometries>
  <library_visual_scenes>
    <visual_scene id="DefaultScene">
      <node id="node_f2b173b4_bb73_494e_855d_5a2bd45490ff" type="NODE">
        <matrix>1 0 0 0 0 1 0 0 0 0 1 0 0 0 0 1</matrix>
        <node id="node_3dd8351a_dc2e_4082_aa63_db48069d6a8d" type="NODE">
          <matrix>1 0 0 0 0 1 0 0 0 0 1 0 0 0 0 1</matrix>
          <node id="node_3dd8351a_dc2e_4082_aa63_db48069d6a8d_mesh0" type="NODE">
            <matrix>1 0 0 0 0 1 0 0 0 0 1 0 0 0 0 1</matrix>
            <instance_geometry url="#geometry_adad6e38_c61f_41f4_a31a_8b8d9936a70a">
              <bind_material>
                <technique_common>
                  <instance_material symbol="mat_1" target="#mat_1"/>
                </technique_common>
              </bind_material>
              <bind_material>
                <technique_common>
                  <instance_material symbol="mat_2" target="#mat_2"/>
                </technique_common>
              </bind_material>
            </instance_geometry>
          </node>
        </node>
      </node>
    </visual_scene>
  </library_visual_scenes>
  <scene>
    <instance_visual_scene url="#DefaultScene"/>
  </scene>
</COLLADA>
